<svg xmlns="http://www.w3.org/2000/svg" viewBox="0 0 100 100">
  <defs>
    <radialGradient id="bg" cx="50%" cy="32%" r="80%">
      <stop offset="0%" stop-color="#ff5560"/>
      <stop offset="55%" stop-color="#ef2c39"/>
      <stop offset="100%" stop-color="#a01620"/>
    </radialGradient>
  </defs>
  <rect width="100" height="100" rx="22" fill="url(#bg)"/>
  <g transform="translate(21.76 15.2) scale(0.565)">
    <path d="M50 4C25.7 4 6 23.7 6 48c0 33 38.5 67.3 41.6 70.1 1.4 1.2 3.4 1.2 4.8 0C55.5 115.3 94 81 94 48 94 23.7 74.3 4 50 4Z" fill="#ffffff"/>
    <path d="M30 46c0-11 9-20 20-20s20 9 20 20-9 20-20 20-20-9-20-20Zm20-16c-8.8 0-16 7.2-16 16 0 6 3.4 11.2 8.4 13.9 1.2-3.5 3-7.6 5.2-11.5C49 47 49.9 45 50.3 43c.4 2 1.3 4 2.5 6.1 2.3 4 4.2 8.3 5.3 11.8 5-2.7 8.5-7.9 8.5-13.9 0-8.8-7.2-16-16-16Z" fill="#ef2c39"/>
  </g>
</svg>
